<svg id="heroimage" xmlns="http://www.w3.org/2000/svg" xmlns:xlink="http://www.w3.org/1999/xlink" width="1099.2" height="725.693" viewBox="0 0 1099.2 725.693">
  <defs>
    <linearGradient id="linear-gradient" x1="-0.232" y1="0.5" x2="0.769" y2="0.5" gradientUnits="objectBoundingBox">
      <stop offset="0" stop-color="gray" stop-opacity="0.251"/>
      <stop offset="0.54" stop-color="gray" stop-opacity="0.122"/>
      <stop offset="1" stop-color="gray" stop-opacity="0.102"/>
    </linearGradient>
  </defs>
  <circle id="Ellipse_376" data-name="Ellipse 376" cx="21.63" cy="21.63" r="21.63" transform="translate(963.95 349.455)" fill="#1db954" opacity="0.1"/>
  <circle id="Ellipse_377" data-name="Ellipse 377" cx="36.25" cy="36.25" r="36.25" transform="translate(1026.7 238.395)" fill="#1db954" opacity="0.1"/>
  <circle id="Ellipse_378" data-name="Ellipse 378" cx="21.63" cy="21.63" r="21.63" transform="translate(433.69 6.145)" fill="#1db954" opacity="0.1"/>
  <circle id="Ellipse_379" data-name="Ellipse 379" cx="21.63" cy="21.63" r="21.63" transform="translate(681.8 31.005)" fill="#1db954" opacity="0.1"/>
  <circle id="Ellipse_380" data-name="Ellipse 380" cx="36.25" cy="36.25" r="36.25" transform="translate(0 289.965)" fill="#1db954" opacity="0.1"/>
  <path id="Path_80" data-name="Path 80" d="M658.51,206.77c-64.72-2.41-126.36-24.85-185.22-49.41S356.12,105.61,293,92.6c-40.63-8.37-87.09-9.56-119.83,13.84C141.62,129,131.44,167.83,126,203.89c-4.12,27.14-6.54,55.7,4.74,81.1,7.83,17.64,21.74,32.46,31.36,49.35,33.47,58.78,9.81,131.27-26.46,188.66-17,26.92-36.74,52.6-49.87,81.26S66.54,665.76,78,695c11.38,29,38.51,50.74,67.9,66,59.69,31.09,130,40,198.61,45,151.82,11.16,304.46,6.33,456.69,1.49,56.33-1.79,112.92-3.61,168.34-13,30.78-5.2,62.55-13.45,84.89-33.36,28.37-25.27,35.4-68.07,16.39-99.76-31.88-53.16-120-66.37-142.31-123.42-12.26-31.4.33-66.38,18.16-95.5,38.23-62.48,102.33-117.29,105.7-188.71,2.32-49-28.49-98.16-76.13-121.37-49.94-24.33-119.18-21.27-156,19C782.32,193,715.65,208.91,658.51,206.77Z" transform="translate(-50.4 -87.115)" fill="#1db954" opacity="0.1"/>
  <path id="Path_81" data-name="Path 81" d="M872.34,482.75a5.91,5.91,0,0,0,1.33,3.46,19.66,19.66,0,0,0,5.32,4.52v5.42s16,13.37,19.29,18.42c3.17,4.82,6.41,9.73,10.92,13.32a9.85,9.85,0,0,0,4.07,2.16h.27a4.23,4.23,0,0,1-1.56,1,3.7,3.7,0,0,0,4.36,3.13,7.289,7.289,0,0,0,2.16-1.08l6.34-4.1a18.16,18.16,0,0,0,2.95-2.21c1.18-1.19,2-2.68,3.16-3.9,2-2.08,4.84-3.32,6.23-5.82.87-1.56,1-3.41,1.56-5.12.35-1.12.86-2.18,1.2-3.3a11.927,11.927,0,0,0,.41-2.06c.22.19.45.38.69.56.49-.32,1.43.52,1.21,1.06s-.75.93-.93,1.49c-.4,1.28,1.18,2.23,1.84,3.4s.32,2.67.39,4,.68,2.93.87,4.42c.46,3.48-1.26,7.15,0,10.44a3.29,3.29,0,0,0-3.25,2.53,9.579,9.579,0,0,0,.13,4.45,6.12,6.12,0,0,0-3,5.59,1.37,1.37,0,0,1-.14,1,1.42,1.42,0,0,1-.57.33,5.64,5.64,0,0,0-3.48,5.24,2.6,2.6,0,0,1-.1,1.11,2.629,2.629,0,0,1-.82.84,6.52,6.52,0,0,0-2.43,5.1,3.7,3.7,0,0,0,1.72,3.34h.07a18,18,0,0,0-6,11.39,46.763,46.763,0,0,0,.78,11.79h.36v.29a5.249,5.249,0,0,0,.57,1.7,24.358,24.358,0,0,1,2.15,8.76,7.757,7.757,0,0,0,.3,2.21,11.139,11.139,0,0,0,1.13,1.94c1.33,2.17,1.64,4.79,2.09,7.3a57.718,57.718,0,0,0,2.55,9.57c1.53,4.24,3.59,8.58,2.89,13a13,13,0,0,0-.4,3.21,9.389,9.389,0,0,0,1.26,3.37,31.231,31.231,0,0,1,1.4,3.12,2.52,2.52,0,0,0,.62,1.69c.12.33.22.67.32,1s.17.53.25.8a10.3,10.3,0,0,1,.31,1.36l-.06,1.05v1a2.491,2.491,0,0,1-.48.89,3.569,3.569,0,0,1-.26.29l-.24.27a1.8,1.8,0,0,0-.27.39h0a1.87,1.87,0,0,0-.08,1.15,1.825,1.825,0,0,0,.1.45c.25,1.08.52,2.16.79,3.23.08.33.17.65.25,1,.22.84.44,1.69.67,2.53v.11l.15.56.57,2.06c.12.41.24.81.35,1.22l.44,1.49q.51,1.74,1.05,3.48c3.57,11.78,7.4,23.49,9.76,35.57a3.83,3.83,0,0,0,1.43,2.14,8.24,8.24,0,0,0,2.49,1.34c.23,1.77.8,3.93.87,5,.22,3.49.38,7.21-.89,10.39a.84.84,0,0,0-.76.24,31,31,0,0,0-2.29,2.43l-4.69,5a7.75,7.75,0,0,0-1.06,1.29,4.51,4.51,0,0,0-.45,3.69,5,5,0,0,0,2.41,2.86,4,4,0,0,1,.76.43,4.5,4.5,0,0,0,.47.4,1.82,1.82,0,0,0,1,.19,35.706,35.706,0,0,0,7.87-1.34,6.31,6.31,0,0,0,3.25-1.53,6.08,6.08,0,0,0,1.11-2.16l.94-2.6a29.613,29.613,0,0,0,1.43-4.85,10,10,0,0,0-.25-5,1,1,0,0,0-.24.41c.23-1.45.45-2.91.68-4.37.07-.43.13-.87.19-1.32.3,3.89-.27,7.81-.09,11.71a13.662,13.662,0,0,0-.39,2.19c.26,3.58,1.75,7.49,4.64,9.62a4.75,4.75,0,0,0,1.59.83,5.62,5.62,0,0,0,1.64,0,20.9,20.9,0,0,0,6.24-1.18,7.67,7.67,0,0,0,4.49-4.26,10,10,0,0,0,.45-3.08,11.832,11.832,0,0,0-.29-3.25,24.783,24.783,0,0,0-1.64-3.79,36.175,36.175,0,0,1-1.86-5.58l-.87-3.17c-.24-.9-.49-1.8-.8-2.68a4.49,4.49,0,0,0-1.11-2.11c-.36-.28-.6-.3-.76-.14v-.34a35.855,35.855,0,0,0,.23-3.71c-.24-2-1.83-3.63-2.86-5.41a10.564,10.564,0,0,1-1.14-2.86c-.06-.22-.1-.43-.14-.66a2.329,2.329,0,0,1,.57-.37l1.78,1c-1.57-11.8-.74-24.17-5.32-35.15-2-4.78-5.85-9.76-5.42-14.91a4.2,4.2,0,0,1,.47-6.7c.77-.42,1.72-.62,2.25-1.33a3.628,3.628,0,0,0,.51-1.29,204.582,204.582,0,0,1,9.88-29.65c.89-2.11,1.81-4.2,2.74-6.29l3.1-7.05,3.78-8.58c1.28-2.89,2.57-6.19,1.36-9.1-.48-1.15-1.33-2.24-1.21-3.47a21.8,21.8,0,0,1,.74-2.29,5.7,5.7,0,0,0-.19-2.49c-.25-1.08-.53-2.16-.82-3.23a18.01,18.01,0,0,1,2.41.46c.48-.81-.29-1.75-.76-2.57a8.69,8.69,0,0,1-.87-3.57l-1-10.09a17.9,17.9,0,0,1-.08-4.2c.2-1.48.77-2.89,1.06-4.37.55-2.83,0-5.75.18-8.64a38.735,38.735,0,0,1,1.32-7.52c.09-.37.17-.73.26-1.1a6,6,0,0,0,1.45.25h1.24a4,4,0,0,0,.55-.14h.12a6.009,6.009,0,0,0,.59-.23c-.24-.51-.46-1-.67-1.54-.09-.21-.17-.42-.25-.63s-.23-.59-.33-.89-.2-.55-.29-.82-.15-.46-.22-.69-.19-.63-.28-1-.18-.66-.27-1L996,516a8.769,8.769,0,0,0,1.65,1.13c2,3.45,3.81,7,5.48,10.58a3.361,3.361,0,0,0,.51-1.29,6.184,6.184,0,0,0,.71.91,10.6,10.6,0,0,0,2.33,1.71,6,6,0,0,0,2.76,1,5.15,5.15,0,0,0,3.53-1.53c2.91-2.55,4.36-6.34,5.71-10a75.287,75.287,0,0,0,4.3-14.73c.82-5.43.47-11.07,2-16.34-1.39-2.76-2.27-5.81-3.83-8.48a37.92,37.92,0,0,1-2.64-4.95,17.1,17.1,0,0,1-.47-11.44,1.57,1.57,0,0,0-1.83.1,3.828,3.828,0,0,0-1.1,1.6,14.19,14.19,0,0,0-1.09,6.72,2.681,2.681,0,0,1-.19,1.64,2.06,2.06,0,0,1-1.78.75,15.34,15.34,0,0,1-4.12-.75,38.278,38.278,0,0,0-11.48-1.12,9.111,9.111,0,0,0-1-1l-.43-.35-.44-.34-.22-.18a5,5,0,0,1-.42-.37,2.77,2.77,0,0,1-1-1.75,2.239,2.239,0,0,1,0-.26,1.944,1.944,0,0,1,0-.24,3.379,3.379,0,0,1,.23-.7,4.688,4.688,0,0,1,.22-.45l.11-.23c0-.07.07-.15.11-.22a6.6,6.6,0,0,0,.32-.84,6.134,6.134,0,0,0,.21-.87,6.546,6.546,0,0,0,.09-.89q0-.45,0-.9v-.45a9.09,9.09,0,0,0-.37-1.78,9.873,9.873,0,0,0-.48-1.28,14.163,14.163,0,0,0-.85-1.58,24.181,24.181,0,0,0-2.14-2.91l-.59-.69-.6-.68a23.761,23.761,0,0,1-1.74-2.13,8.278,8.278,0,0,1-1-1.78c-.08-.21-.15-.42-.21-.64a6.507,6.507,0,0,1-.18-1.24v-.41a15.414,15.414,0,0,1,.08-1.67c.08-.78.19-1.57.3-2.37.07-.53.15-1.06.22-1.59a5.337,5.337,0,0,1,.1-.79c.06-.53.12-1.06.16-1.59a15.238,15.238,0,0,0-.26-4.63,8.765,8.765,0,0,0-.47-1.48,9.39,9.39,0,0,0-1-1.8,13,13,0,0,0-5.56-4.33,25.6,25.6,0,0,0-5.09-1.63c-.7-.15-1.39-.28-2.08-.39-10.4-1.67-21.44,1.49-28,10-3.42,4.42-6.33,9.38-7.57,14.83s-.68,11.49,2.39,16.17c1.29,2,3,3.68,4.13,5.74.94,1.68,1.5,3.57,2.51,5.21a12.3,12.3,0,0,0,5.55,4.67l-.44.4a13.479,13.479,0,0,0-3.11.06c-1.06.18-2.09.59-3.16.72-1.32.17-2.67-.09-4,.08-2.46.32-4.48,2-6.35,3.65-2.19,1.91-4.54,4.14-4.71,7v.08l-1.47,2a7.889,7.889,0,0,0-.92,1.45c-.59,1.39-.26,3-.58,4.48a9.581,9.581,0,0,1-1.16,2.67,60.067,60.067,0,0,1-5,7.46,12.64,12.64,0,0,1-3.11,3.08,5.6,5.6,0,0,1-3.24.92,20.768,20.768,0,0,1-4.74-3.17,30.569,30.569,0,0,1-4.19-5.21c-2.38-3.43,5,6.83,2.62,3.39L886.58,474.2a29,29,0,0,1-.84-5.06c0-.65-.27-1.51-.93-1.53a1.13,1.13,0,0,0-.75.36,4.34,4.34,0,0,0-1.39,3.7,5.13,5.13,0,0,0-3.27.58,1.87,1.87,0,0,0-.41,2.66v.27a1.42,1.42,0,0,0-.75,1.5,5.08,5.08,0,0,0-3.51.17c-1.05.59-1.45,2.32-.43,3a3.07,3.07,0,0,0-1.96,2.9Zm133.68,5.1a16.519,16.519,0,0,0,1.87.48,29.843,29.843,0,0,1,5.8,2,3.181,3.181,0,0,1,1.51,1.13,3.36,3.36,0,0,1-.18,2.84l-2.64,7.13c-.42,1.12-.83,2.24-1.35,3.31-.2.43-.43.86-.66,1.28q-.12-.36-.24-.69a58.517,58.517,0,0,1-1.9-6.64c-.44-1.94-.81-3.9-1.12-5.86a28.638,28.638,0,0,0-1.11-4.98Zm-2.76-5.59.2.14a2.25,2.25,0,0,1,.69.48,1.07,1.07,0,0,1,0,1Zm-4.77-6.87,3.16.46a4.15,4.15,0,0,1,2.13.73,1.43,1.43,0,0,1,.29,2,4.762,4.762,0,0,1-.7.47,2,2,0,0,0-.75,2.07,22.411,22.411,0,0,0-1.81-2.81,13.9,13.9,0,0,0-2.11-2.16C998.63,475.9,998.57,475.64,998.49,475.39ZM968.12,702.72a11.3,11.3,0,0,0,1.17,0,11.228,11.228,0,0,0-.19,2.84Z" transform="translate(-50.4 -87.115)" fill="url(#linear-gradient)"/>
  <path id="Path_82" data-name="Path 82" d="M972.32,426.22c5.49.88,11.59,3,13.69,8.14,1.58,3.89.36,8.26,0,12.44a9.44,9.44,0,0,0,.12,3.31,11.61,11.61,0,0,0,2.9,4.55,24.241,24.241,0,0,1,4.18,5.85,8.52,8.52,0,0,1,.28,7,5.09,5.09,0,0,0-.69,1.84c-.07,1.43,1.42,2.33,2.52,3.24,4.12,3.41,3.94,9.62,4,15a75.721,75.721,0,0,0,7.16,31.64,9.67,9.67,0,0,1-10.82-1.41,36.433,36.433,0,0,0,2.46,7.08c-3.49,1.69-7.69-1.09-9.43-4.54s-2-7.48-3.2-11.14S982,502.33,981,498.64a10.168,10.168,0,0,0-1.25-3.54,9,9,0,0,0-2.2-1.87,21.4,21.4,0,0,1-7.75-10.52c-4.27,1-8.62,1.89-13,1.5s-8.79-2.37-11.08-6.09c-1-1.64-1.57-3.53-2.51-5.21-1.15-2.06-2.85-3.75-4.14-5.73-3.06-4.68-3.62-10.69-2.38-16.15s4.14-10.39,7.57-14.81C950.89,427.71,961.93,424.55,972.32,426.22Z" transform="translate(-50.4 -87.115)" fill="#3a3768"/>
  <path id="Path_83" data-name="Path 83" d="M972.32,426.22c5.49.88,11.59,3,13.69,8.14,1.58,3.89.36,8.26,0,12.44a9.44,9.44,0,0,0,.12,3.31,11.61,11.61,0,0,0,2.9,4.55,24.241,24.241,0,0,1,4.18,5.85,8.52,8.52,0,0,1,.28,7,5.09,5.09,0,0,0-.69,1.84c-.07,1.43,1.42,2.33,2.52,3.24,4.12,3.41,3.94,9.62,4,15a75.721,75.721,0,0,0,7.16,31.64,9.67,9.67,0,0,1-10.82-1.41,36.433,36.433,0,0,0,2.46,7.08c-3.49,1.69-7.69-1.09-9.43-4.54s-2-7.48-3.2-11.14S982,502.33,981,498.64a10.168,10.168,0,0,0-1.25-3.54,9,9,0,0,0-2.2-1.87,21.4,21.4,0,0,1-7.75-10.52c-4.27,1-8.62,1.89-13,1.5s-8.79-2.37-11.08-6.09c-1-1.64-1.57-3.53-2.51-5.21-1.15-2.06-2.85-3.75-4.14-5.73-3.06-4.68-3.62-10.69-2.38-16.15s4.14-10.39,7.57-14.81C950.89,427.71,961.93,424.55,972.32,426.22Z" transform="translate(-50.4 -87.115)" fill="#3f3d56"/>
  <path id="Path_84" data-name="Path 84" d="M1006.94,494.79c.31,2,.68,3.92,1.13,5.87a56.152,56.152,0,0,0,1.89,6.62,6.36,6.36,0,0,1,.59,3,5.607,5.607,0,0,1-.73,1.82c-2.51,4.45-5.89,8.75-6.18,13.85a7.452,7.452,0,0,1-.68,3.69q-2.91-6.24-6.41-12.18c-2.44-4.14-5.15-8.32-5.85-13.08a24.8,24.8,0,0,1,.08-6.72,14.631,14.631,0,0,1,2.42-7.07c1.65-2.16,6.2-5.43,9.14-4.76C1005.79,486.67,1006.5,492,1006.94,494.79Z" transform="translate(-50.4 -87.115)" fill="#f86d70"/>
  <path id="Path_85" data-name="Path 85" d="M918.57,518.78c-3.28-1.34-6.62-2.75-9.23-5.16a30.108,30.108,0,0,1-4.19-5.2l-7.71-11.14c-1.83-2.65-3.71-5.43-4.1-8.62a28.37,28.37,0,0,1-7.71-17.5c0-.66-.26-1.51-.92-1.53a1.16,1.16,0,0,0-.76.36,4.35,4.35,0,0,0-1.38,3.7,5.13,5.13,0,0,0-3.27.57c-.92.66-1.16,2.29-.17,2.84a1.41,1.41,0,0,0-1,1.59,5,5,0,0,0-3.51.17c-1,.59-1.45,2.31-.43,3a3,3,0,0,0-2,2.93,5.88,5.88,0,0,0,1.33,3.45c3,4,8.2,5.58,11.63,9.16a26.566,26.566,0,0,1,3,4l9.95,15.14c3.16,4.81,6.41,9.71,10.92,13.29a9.88,9.88,0,0,0,4.06,2.16,4.49,4.49,0,0,0,4.27-1.18c1-1.13,1.15-2.76,1.25-4.26C918.84,524,918.4,521.35,918.57,518.78Z" transform="translate(-50.4 -87.115)" fill="#a1616a"/>
  <path id="Path_86" data-name="Path 86" d="M951.88,729a8.646,8.646,0,0,0-1.06,1.29,4.51,4.51,0,0,0-.45,3.69,5,5,0,0,0,2.41,2.85,4.717,4.717,0,0,1,.76.44,4.5,4.5,0,0,0,.47.4,1.819,1.819,0,0,0,1,.19,36.408,36.408,0,0,0,7.87-1.34,6.31,6.31,0,0,0,3.25-1.53,6.47,6.47,0,0,0,1.11-2.15l.93-2.6a30.533,30.533,0,0,0,1.44-4.84,10.08,10.08,0,0,0-.26-5,1.63,1.63,0,0,0-.35,1,11.071,11.071,0,0,1-2,4.85,4.941,4.941,0,0,1-.78,1,5.09,5.09,0,0,1-2.34,1,28.761,28.761,0,0,1-5,.64,1.559,1.559,0,0,1-.68-.08,1.19,1.19,0,0,1-.57-.71,3,3,0,0,1,0-2c.45-1.26,1.69-2.09,2.29-3.3.44-.89-.17-1.87-1.08-1.12a27.718,27.718,0,0,0-2.29,2.43Z" transform="translate(-50.4 -87.115)" fill="#3f3d56"/>
  <path id="Path_87" data-name="Path 87" d="M960.5,711c.27,4.19.45,8.71-1.84,12.22-.82,1.27-1.93,2.33-2.87,3.52a4.13,4.13,0,0,0-1,2.12c-.14,1.53,1.3,2.85,2.82,3.13a9.33,9.33,0,0,0,4.53-.65,10.909,10.909,0,0,0,3.85-1.81c2-1.69,2.52-4.5,2.92-7.08l.93-6a18.913,18.913,0,0,0,.34-4.37,19.46,19.46,0,0,0-1.17-4.71l-1.54-4.5a2.12,2.12,0,0,0-.68-1.12,2,2,0,0,0-1.17-.21c-1.47.07-5.18.61-5.89,2.16C959.08,705.1,960.4,709.42,960.5,711Z" transform="translate(-50.4 -87.115)" fill="#ee8e9e"/>
  <path id="Path_88" data-name="Path 88" d="M960.5,711c.27,4.19.45,8.71-1.84,12.22-.82,1.27-1.93,2.33-2.87,3.52a4.13,4.13,0,0,0-1,2.12c-.14,1.53,1.3,2.85,2.82,3.13a9.33,9.33,0,0,0,4.53-.65,10.909,10.909,0,0,0,3.85-1.81c2-1.69,2.52-4.5,2.92-7.08l.93-6a18.913,18.913,0,0,0,.34-4.37,19.46,19.46,0,0,0-1.17-4.71l-1.54-4.5a2.12,2.12,0,0,0-.68-1.12,2,2,0,0,0-1.17-.21c-1.47.07-5.18.61-5.89,2.16C959.08,705.1,960.4,709.42,960.5,711Z" transform="translate(-50.4 -87.115)" opacity="0.05"/>
  <path id="Path_89" data-name="Path 89" d="M927.55,586.85a.373.373,0,0,0,0,.11,5,5,0,0,0,.56,1.7,24.582,24.582,0,0,1,2.16,8.75,7.407,7.407,0,0,0,.29,2.21,11.8,11.8,0,0,0,1.13,1.94c1.33,2.17,1.64,4.78,2.09,7.29a57.62,57.62,0,0,0,2.55,9.56c1.53,4.23,3.59,8.57,2.89,13a13.007,13.007,0,0,0-.4,3.2,9.239,9.239,0,0,0,1.25,3.37,31.286,31.286,0,0,1,1.41,3.12c.41,1.06.85,2.31,1.19,3.48.41,1.44.69,3.14-.26,4.29a4.875,4.875,0,0,0-.77.94,2.5,2.5,0,0,0,0,1.62q.81,3.42,1.74,6.83c.48,1.78,1,3.55,1.51,5.32,3.86,12.94,8.22,25.75,10.81,39,.37,1.91,2.81,3.28,4.71,3.69a6.14,6.14,0,0,0,5.41-1.45,3.328,3.328,0,0,0,.38-.37c2-2.14,2.27-5.42,2.13-8.38-.67-13.64-7.54-26.12-10.81-39.38a75.834,75.834,0,0,1-2.12-14.61c-.77-16.47-1.07-33.87,3.58-49.68,1-3.29,2.11-7,.37-10a9.753,9.753,0,0,0-5.14-3.76,33.1,33.1,0,0,0-25.69.66,8.016,8.016,0,0,0,0,1,10.13,10.13,0,0,1-.52,4.54,5.57,5.57,0,0,0-.45,2.01Z" transform="translate(-50.4 -87.115)" fill="#3f3d56"/>
  <path id="Path_90" data-name="Path 90" d="M983.92,715.24l.87,3.17a35.417,35.417,0,0,0,1.85,5.58,24.3,24.3,0,0,1,1.65,3.78,12.223,12.223,0,0,1,.28,3.25,9.93,9.93,0,0,1-.45,3.07,7.67,7.67,0,0,1-4.49,4.26,21.205,21.205,0,0,1-6.23,1.17,5,5,0,0,1-1.64,0,4.571,4.571,0,0,1-1.59-.83c-2.89-2.12-4.38-6-4.64-9.61a11.816,11.816,0,0,1,.49-2.45c.22-.3,2.41.93,1.47,2-1.38,1.53,2.67.74,4.73.61a19,19,0,0,0,2.68-.44l3.33-.71c1.09-.24,2.35-.61,2.73-1.66s-.46-2.29-1.11-3.3c-1.75-2.69-2.19-6-2.6-9.17-.08-.63-.86-4.68.75-3.42a4.5,4.5,0,0,1,1.12,2.11C983.43,713.45,983.67,714.34,983.92,715.24Z" transform="translate(-50.4 -87.115)" fill="#3f3d56"/>
  <path id="Path_91" data-name="Path 91" d="M942.42,648.88c1-1.15.67-2.85.26-4.28-.16-.54-.32-1.07-.5-1.6l13.09-4.42c0,1.17.1,2.34.15,3.51a76.05,76.05,0,0,0,2.12,14.62c3.27,13.25,10.14,25.73,10.81,39.36.15,3.14-.18,6.65-2.5,8.77a6.19,6.19,0,0,1-5.42,1.44c-1.89-.41-4.34-1.78-4.71-3.69-2.59-13.25-7-26.06-10.81-39q-1.8-6-3.25-12.16a2.54,2.54,0,0,1,0-1.61,4.88,4.88,0,0,1,.76-.94Z" transform="translate(-50.4 -87.115)" opacity="0.05"/>
  <path id="Path_92" data-name="Path 92" d="M978.6,700.87c1,1.78,2.61,3.36,2.85,5.4a30.92,30.92,0,0,1-.23,3.71,11.637,11.637,0,0,0,.55,3q1.9,6.9,4.4,13.62a3.73,3.73,0,0,1,.35,1.85,3.26,3.26,0,0,1-2.17,2.16c-3.11,1.33-6.63,1.24-10,1.1a5.23,5.23,0,0,1-2.82-.66c-1.21-.83-1.51-2.47-1.59-3.93-.23-4.25.49-8.52,0-12.75-.16-1.54-.49-3.06-.73-4.58a13.431,13.431,0,0,1,.2-6.4,14.647,14.647,0,0,1,2.39-4,12.521,12.521,0,0,1,3.33-3.32c.4-.24,1.53-1,1.93-.51.21.23.12.85.15,1.14a11.373,11.373,0,0,0,.23,1.32A10.85,10.85,0,0,0,978.6,700.87Z" transform="translate(-50.4 -87.115)" fill="#ee8e9e"/>
  <path id="Path_93" data-name="Path 93" d="M953.43,592.16a3.621,3.621,0,0,1,.25,3c-.44,1.81-1.16,3.54-1.75,5.31a73.882,73.882,0,0,0-2.26,9.65c-.55,2.95-1.71,6.23-1.23,9.2a65.548,65.548,0,0,0-7,21.81c-.27,1.95,4.07,4.48,4,6.45-.16,3.92-3.29,4.23-1,7.36.11.16-.87,3.66-.74,3.81.94,1.13,2.13,2,3.14,3.09a23.631,23.631,0,0,1,3.31,4.85c6,10.78,14.59,23,11.93,35a2.14,2.14,0,0,0,1.14,2.16,5.89,5.89,0,0,0,2.52.58h.42c2-2.14,2.27-5.42,2.13-8.38-.67-13.64-7.54-26.12-10.81-39.38a75.848,75.848,0,0,1-2.12-14.61c-.77-16.47-1.07-33.87,3.58-49.68,1-3.29,2.11-7,.37-10a9.753,9.753,0,0,0-5.14-3.76,33.1,33.1,0,0,0-25.69.66,8,8,0,0,0,0,1,10.13,10.13,0,0,1-.52,4.54,5.571,5.571,0,0,0-.51,2s-.24-2.65-.24-2.61c5.35.77,10.93,4.26,16.28,5a37.183,37.183,0,0,1,8.16,1.8A3.54,3.54,0,0,1,953.43,592.16Z" transform="translate(-50.4 -87.115)" opacity="0.05"/>
  <path id="Path_94" data-name="Path 94" d="M990.45,563c.72,2.29,1.36,4.6,1.9,6.93a5.661,5.661,0,0,1,.19,2.48,21.788,21.788,0,0,0-.74,2.29c-.12,1.23.73,2.31,1.21,3.46,1.21,2.92-.08,6.21-1.35,9.1l-3.79,8.57-3.1,7c-.92,2.09-1.84,4.18-2.73,6.29a204.521,204.521,0,0,0-9.88,29.61,3.63,3.63,0,0,1-.51,1.29c-.53.7-1.48.9-2.25,1.33a4.19,4.19,0,0,0-.46,6.69c-.44,5.15,3.42,10.12,5.41,14.89,4.57,11,3.74,23.32,5.32,35.1l-1.78-1c-1.71.78-1.65,3.2-2.56,4.83-1.38,2.46-4.75,2.81-7.56,2.62a5.9,5.9,0,0,1-2.53-.58,2.13,2.13,0,0,1-1.13-2.16c2.65-12-6-24.25-11.94-35a23.3,23.3,0,0,0-3.31-4.84c-1-1.07-2.19-2-3.14-3.1-2.63-3.16-3-7.62-2.79-11.73a65.72,65.72,0,0,1,7.47-27.7c-.47-3,.69-6.25,1.24-9.2a72.253,72.253,0,0,1,2.25-9.65c.59-1.77,1.31-3.5,1.75-5.31a3.621,3.621,0,0,0-.24-3,3.52,3.52,0,0,0-1.69-1.09,37.628,37.628,0,0,0-8.16-1.8l-18.38-2.64c-.59-3.78-1.19-8-.78-11.78a18.11,18.11,0,0,1,13-15.16,2.73,2.73,0,0,1,2.39.15A95.83,95.83,0,0,1,990.45,563Z" transform="translate(-50.4 -87.115)" fill="#3f3d56"/>
  <path id="Path_95" data-name="Path 95" d="M973.75,463.61a9,9,0,0,0,.8,5.26,8.219,8.219,0,0,0,2.09,2.31,15.49,15.49,0,0,0,6.06,3c1.3.33,2.76.55,3.62,1.59,1.29,1.56.43,3.91-.67,5.61-1.9,3-4.55,5.65-7.94,6.57-2.71.74-5.61.29-8.38.77-2,.35-3.9,1.18-5.88,1.65a17.35,17.35,0,0,1-16-4.45c2.94-2.26,6-4.67,7.53-8.06a11.46,11.46,0,0,0,.57-7.7c-.71-2.51-2.3-5-1.8-7.52s3-4.32,5.51-5.19a35.34,35.34,0,0,1,6.93-1.4c1.29-.18,9.52-2,10-1.1.29.51-1.42,3.51-1.63,4.17A16.048,16.048,0,0,0,973.75,463.61Z" transform="translate(-50.4 -87.115)" fill="#a1616a"/>
  <path id="Path_96" data-name="Path 96" d="M973.75,463.61a9,9,0,0,0,.8,5.26,8.219,8.219,0,0,0,2.09,2.31,15.49,15.49,0,0,0,6.06,3c1.3.33,2.76.55,3.62,1.59,1.29,1.56.43,3.91-.67,5.61-1.9,3-4.55,5.65-7.94,6.57-2.71.74-5.61.29-8.38.77-2,.35-3.9,1.18-5.88,1.65a17.35,17.35,0,0,1-16-4.45c2.94-2.26,6-4.67,7.53-8.06a11.46,11.46,0,0,0,.57-7.7c-.71-2.51-2.3-5-1.8-7.52s3-4.32,5.51-5.19a35.34,35.34,0,0,1,6.93-1.4c1.29-.18,9.52-2,10-1.1.29.51-1.42,3.51-1.63,4.17A16.048,16.048,0,0,0,973.75,463.61Z" transform="translate(-50.4 -87.115)" opacity="0.05"/>
  <circle id="Ellipse_381" data-name="Ellipse 381" cx="16.69" cy="16.69" r="16.69" transform="translate(896.31 349.115)" fill="#a1616a"/>
  <path id="Path_97" data-name="Path 97" d="M972.21,480.51l-11.31,1.9a42.372,42.372,0,0,1-8.46.85,24.2,24.2,0,0,0-4.66,0c-1.07.18-2.09.59-3.17.72-1.32.17-2.66-.08-4,.09-2.46.31-4.48,2-6.35,3.64-2.19,1.9-4.54,4.13-4.7,7a2,2,0,0,0,.13,1,2.929,2.929,0,0,0,.84.88c2.08,1.7,3.25,4.25,4.73,6.5a25.109,25.109,0,0,0,5.62,6.06c.5-.32,1.44.52,1.22,1.06s-.75.93-.93,1.49c-.4,1.28,1.18,2.22,1.83,3.4s.33,2.66.4,4,.67,2.93.87,4.43c.45,3.47-1.26,7.13,0,10.42a3.27,3.27,0,0,0-3.25,2.53,9.55,9.55,0,0,0,.13,4.44,6.11,6.11,0,0,0-3,5.58,1,1,0,0,1-.72,1.33,5.63,5.63,0,0,0-3.47,5.23,2.571,2.571,0,0,1-.1,1.11,2.44,2.44,0,0,1-.82.84,6.52,6.52,0,0,0-2.43,5.1,3.74,3.74,0,0,0,1.72,3.34,31.121,31.121,0,0,0,7.6,2.26,68.3,68.3,0,0,0,7.36,1.3,66,66,0,0,0,6.89.21l15.14-.06c4.25,0,8.51,0,12.76-.32,4-.26,8-.76,11.85.28.48-.81-.29-1.75-.76-2.57a8.609,8.609,0,0,1-.87-3.56l-.95-10.09a17.729,17.729,0,0,1-.08-4.18c.21-1.49.77-2.9,1.06-4.37.55-2.83,0-5.75.18-8.63a38.51,38.51,0,0,1,1.32-7.51l3-12.35a47.685,47.685,0,0,1,1.48-6.19q3.45-8.9,7.25-17.64a1.82,1.82,0,0,0-.13-1.56l-2.5-4.49a28.663,28.663,0,0,0-2.29-3.65,14.449,14.449,0,0,0-8.45-5.19,14.94,14.94,0,0,0-9.82,1.46c-1.17.62-2.25,1.39-3.44,2C976.92,479.6,974.47,480.66,972.21,480.51Z" transform="translate(-50.4 -87.115)" fill="#f86d70"/>
  <path id="Path_98" data-name="Path 98" d="M932.05,491.5l-3.94,5.26a6.7,6.7,0,0,0-.92,1.45c-.6,1.38-.27,3-.59,4.46a9.3,9.3,0,0,1-1.15,2.67,61.584,61.584,0,0,1-5,7.46,13.369,13.369,0,0,1-3.11,3.08,5.16,5.16,0,0,1-4.2.74,2.63,2.63,0,0,1,1.38,1.25,15.26,15.26,0,0,1,1,9.76,10,10,0,0,1-1.1,3.2,4.8,4.8,0,0,1-2.51,2.17,3.7,3.7,0,0,0,4.36,3.13,7.29,7.29,0,0,0,2.16-1.08l6.33-4.1a16.823,16.823,0,0,0,2.95-2.21c1.18-1.18,2-2.67,3.16-3.89,2-2.07,4.84-3.31,6.23-5.81.87-1.56,1-3.41,1.55-5.12.35-1.11.87-2.17,1.2-3.29a14.7,14.7,0,0,0-1.3-10.54C936.92,496.84,934.39,494.26,932.05,491.5Z" transform="translate(-50.4 -87.115)" fill="#f86d70"/>
  <path id="Path_99" data-name="Path 99" d="M946.91,443.41a21.879,21.879,0,0,1,5.87-6.11c3.11-2.33,6.7-4.26,10.59-4.48a11.26,11.26,0,0,1,4.76.78c.08-4.72,1.25-7.85,4.19-7.38,5.49.88,11.59,3,13.69,8.14,1.58,3.89.36,8.26,0,12.44a9.44,9.44,0,0,0,.12,3.31,11.61,11.61,0,0,0,2.9,4.55,24.241,24.241,0,0,1,4.18,5.85,8.52,8.52,0,0,1,.28,7,5.09,5.09,0,0,0-.69,1.84c-.07,1.43,1.42,2.33,2.52,3.24,4.12,3.41,3.94,9.62,4,15a75.721,75.721,0,0,0,7.16,31.64,9.67,9.67,0,0,1-10.82-1.41,36.433,36.433,0,0,0,2.46,7.08c-3.49,1.69-7.69-1.09-9.43-4.54s-2-7.48-3.2-11.14S982,502.33,981,498.64a10.168,10.168,0,0,0-1.25-3.54,9,9,0,0,0-2.2-1.87c-3.59-2.58,1.7-22.12.3-26.31-2.09.45-5.93-9.63-8.12-19.88a10.35,10.35,0,0,1-4.75.48,5.721,5.721,0,0,0-1.7-.12,4.52,4.52,0,0,0-1.48.6,36.516,36.516,0,0,1-5.05,2.6c-3.62,1.35-7.61,1.17-11.46,1a11.36,11.36,0,0,1,1.62-8.19Z" transform="translate(-50.4 -87.115)" fill="#3a3768"/>
  <path id="Path_100" data-name="Path 100" d="M946.91,443.41a21.879,21.879,0,0,1,5.87-6.11c3.11-2.33,6.7-4.26,10.59-4.48a11.26,11.26,0,0,1,4.76.78c.08-4.72,1.25-7.85,4.19-7.38,5.49.88,11.59,3,13.69,8.14,1.58,3.89.36,8.26,0,12.44a9.44,9.44,0,0,0,.12,3.31,11.61,11.61,0,0,0,2.9,4.55,24.241,24.241,0,0,1,4.18,5.85,8.52,8.52,0,0,1,.28,7,5.09,5.09,0,0,0-.69,1.84c-.07,1.43,1.42,2.33,2.52,3.24,4.12,3.41,3.94,9.62,4,15a75.721,75.721,0,0,0,7.16,31.64,9.67,9.67,0,0,1-10.82-1.41,36.433,36.433,0,0,0,2.46,7.08c-3.49,1.69-7.69-1.09-9.43-4.54s-2-7.48-3.2-11.14S982,502.33,981,498.64a10.168,10.168,0,0,0-1.25-3.54,9,9,0,0,0-2.2-1.87c-3.59-2.58,1.7-22.12.3-26.31-2.09.45-5.93-9.63-8.12-19.88a10.35,10.35,0,0,1-4.75.48,5.721,5.721,0,0,0-1.7-.12,4.52,4.52,0,0,0-1.48.6,36.516,36.516,0,0,1-5.05,2.6c-3.62,1.35-7.61,1.17-11.46,1a11.36,11.36,0,0,1,1.62-8.19Z" transform="translate(-50.4 -87.115)" fill="#3f3d56"/>
  <g id="Group_30" data-name="Group 30" transform="translate(0 -0.005)" opacity="0.1">
    <path id="Path_101" data-name="Path 101" d="M1004.44,519.2a75.879,75.879,0,0,1-7.16-31.64c0-5.35.15-11.56-4-15-1.1-.91-2.59-1.81-2.53-3.24a5.11,5.11,0,0,1,.7-1.84,8.56,8.56,0,0,0-.28-7,24.243,24.243,0,0,0-4.18-5.85,11.631,11.631,0,0,1-2.91-4.55,9.94,9.94,0,0,1-.12-3.31c.41-4.18,1.64-8.55,0-12.44-2-5-7.81-7.12-13.16-8.05a3,3,0,0,1,1.44-.09c5.49.88,11.59,3,13.69,8.14,1.58,3.89.36,8.26,0,12.44a9.44,9.44,0,0,0,.12,3.31,11.61,11.61,0,0,0,2.9,4.55,24.241,24.241,0,0,1,4.18,5.85,8.52,8.52,0,0,1,.28,7,5.089,5.089,0,0,0-.69,1.84c-.07,1.43,1.42,2.33,2.52,3.24,4.12,3.41,3.94,9.62,4,15a75.72,75.72,0,0,0,7.16,31.64,9.35,9.35,0,0,1-5.3,1A9.05,9.05,0,0,0,1004.44,519.2Z" transform="translate(-50.4 -87.11)"/>
    <path id="Path_102" data-name="Path 102" d="M996.09,524.87a35.781,35.781,0,0,1-2.46-7.08,9.131,9.131,0,0,0,2.37,1.57,37.209,37.209,0,0,0,2,5.51,5.24,5.24,0,0,1-3.23.41,5.082,5.082,0,0,0,1.32-.41Z" transform="translate(-50.4 -87.11)"/>
    <path id="Path_103" data-name="Path 103" d="M966.17,433.6a11.521,11.521,0,0,0-3.18-.75h.38a11.179,11.179,0,0,1,2.82.21C966.18,433.22,966.17,433.4,966.17,433.6Z" transform="translate(-50.4 -87.11)"/>
    <path id="Path_104" data-name="Path 104" d="M954.81,450.6a36.621,36.621,0,0,0,5.06-2.6,4.441,4.441,0,0,1,1.48-.6,5.46,5.46,0,0,1,1.56.09,6.26,6.26,0,0,0-1.08.51,36.508,36.508,0,0,1-5.05,2.6,22.78,22.78,0,0,1-8.47,1.1A20.07,20.07,0,0,0,954.81,450.6Z" transform="translate(-50.4 -87.11)"/>
    <path id="Path_105" data-name="Path 105" d="M967.8,447l.09.45a9.8,9.8,0,0,1-2.48.07,11,11,0,0,0,2.39-.52Z" transform="translate(-50.4 -87.11)"/>
  </g>
  <path id="Path_106" data-name="Path 106" d="M1002.54,524.43a6.1,6.1,0,0,0,1.64,4.88,10.867,10.867,0,0,0,2.32,1.71,6.3,6.3,0,0,0,2.76,1,5.21,5.21,0,0,0,3.53-1.54c2.91-2.55,4.36-6.33,5.7-9.95a74.653,74.653,0,0,0,4.31-14.71c.82-5.43.47-11.06,2-16.33-1.38-2.76-2.26-5.8-3.83-8.46a39.865,39.865,0,0,1-2.64-4.95,17.1,17.1,0,0,1-.47-11.42,1.54,1.54,0,0,0-1.82.09,3.829,3.829,0,0,0-1.1,1.6,14.172,14.172,0,0,0-1.09,6.71,2.67,2.67,0,0,1-.19,1.64,2.06,2.06,0,0,1-1.78.75,15.8,15.8,0,0,1-4.12-.74,38.189,38.189,0,0,0-12.69-1.05,6,6,0,0,0-2.48.6,2.3,2.3,0,0,0-1.27,2.07l10.14,1.49a4.19,4.19,0,0,1,2.14.73,1.45,1.45,0,0,1,.29,2,4,4,0,0,1-.7.46,2.09,2.09,0,0,0,.08,3.34,2.139,2.139,0,0,1,.69.48c.42.56-.13,1.29-.31,2a2.48,2.48,0,0,0,1.22,2.53,8.919,8.919,0,0,0,2.83.95,29.823,29.823,0,0,1,5.8,2,3.18,3.18,0,0,1,1.51,1.13,3.39,3.39,0,0,1-.18,2.84l-2.64,7.12c-.42,1.12-.83,2.23-1.35,3.31-.67,1.39-1.5,2.7-2.19,4.09a40.835,40.835,0,0,0-1.65,4C1005.65,518.41,1003,520.58,1002.54,524.43Z" transform="translate(-50.4 -87.115)" fill="#a1616a"/>
  <path id="Path_107" data-name="Path 107" d="M565.83,249.17V584.58a111.1,111.1,0,0,0-34.63-5.34c-49.87,0-90.37,35.29-90.37,85.16s40.5,84.77,90.37,84.77,90.62-36.72,90.62-90V426.25h263V584.58a111.051,111.051,0,0,0-34.63-5.34c-49.87,0-90.37,35.29-90.37,85.16s40.5,84.77,90.37,84.77,90.62-36.72,90.62-90v-410Zm319,125h-263v-69h263Z" transform="translate(-50.4 -87.115)" fill="#1db954"/>
  <path id="Path_108" data-name="Path 108" d="M299.83,212.17v225.1a85.15,85.15,0,1,0,42.6,73.6V297.47h85.4v-85.3Z" transform="translate(-50.4 -87.115)" fill="#1db954"/>
  <path id="Path_109" data-name="Path 109" d="M277,739.73a54.339,54.339,0,0,0-15.65-5.54,71.571,71.571,0,0,0,11.71-2.63c10.17-3.22,15.3-7.54,11.45-9.65s-15.22-1.22-25.39,2a39.2,39.2,0,0,0-9.75,4.33c-1.05-2.23-3.91-4.82-8.37-7.27-9-5-21.18-7.47-27.12-5.59s-3.43,7.42,5.61,12.39a54.129,54.129,0,0,0,14,5.21,82.33,82.33,0,0,0-9.65,1.71c-11.07,2.66-17.47,6.67-14.3,9s14.73,2,25.8-.64a48.218,48.218,0,0,0,11.6-4.1c.91,2.3,3.82,5,8.52,7.61,9,5,21.18,7.47,27.12,5.59S286,744.69,277,739.73Z" transform="translate(-50.4 -87.115)" fill="#1db954"/>
  <path id="Path_110" data-name="Path 110" d="M340.71,666.65a26.5,26.5,0,0,0-7.59-2.69,35.72,35.72,0,0,0,5.68-1.27c4.94-1.57,7.43-3.66,5.56-4.69s-7.39-.59-12.33,1a19.674,19.674,0,0,0-4.73,2.1c-.51-1.08-1.9-2.34-4.06-3.53-4.39-2.41-10.29-3.62-13.17-2.71s-1.66,3.61,2.72,6a26.21,26.21,0,0,0,6.82,2.52,40.975,40.975,0,0,0-4.69.84c-5.37,1.28-8.48,3.23-6.94,4.35s7.15,1,12.52-.31a23.78,23.78,0,0,0,5.64-2c.44,1.11,1.85,2.44,4.13,3.69,4.39,2.41,10.28,3.63,13.17,2.72S345.1,669.06,340.71,666.65Z" transform="translate(-50.4 -87.115)" fill="#1db954"/>
  <path id="Path_111" data-name="Path 111" d="M169.32,592.56a16.63,16.63,0,0,0-4.78-1.68,20.817,20.817,0,0,0,3.58-.8c3.09-1,4.65-2.29,3.48-2.93s-4.62-.37-7.71.61a12.283,12.283,0,0,0-3,1.31,5.85,5.85,0,0,0-2.54-2.2c-2.74-1.51-6.43-2.27-8.24-1.7s-1,2.25,1.71,3.76a16.288,16.288,0,0,0,4.27,1.58,24.633,24.633,0,0,0-2.94.53c-3.36.8-5.31,2-4.35,2.72s4.48.61,7.84-.19a14.938,14.938,0,0,0,3.53-1.25,5.57,5.57,0,0,0,2.58,2.31c2.75,1.51,6.44,2.27,8.24,1.7S172.06,594.07,169.32,592.56Z" transform="translate(-50.4 -87.115)" fill="#1db954"/>
  <path id="Path_112" data-name="Path 112" d="M414.83,212.17v71.3h-85.4v213.4a85.27,85.27,0,0,1-138.19,66.89,85.28,85.28,0,0,0,152.19-52.89V297.47h85.4v-85.3Z" transform="translate(-50.4 -87.115)" opacity="0.1"/>
  <path id="Path_113" data-name="Path 113" d="M173.87,230.69l.29,2.18,9.45,1.34s.77-.58,2-1.37c2.24-1.47,6-3.66,9.2-4.28,4.95-1,20.69-8.05,15.62-8.51s-4.55.59-4.55.59-5.59-5.49-11.36-.47c-4.38,3.81-14,7.91-18.39,9.66C174.73,230.38,173.87,230.69,173.87,230.69Z" transform="translate(-50.4 -87.115)" fill="#efb7b9"/>
  <path id="Path_114" data-name="Path 114" d="M211.62,205.63a16,16,0,0,1,4.53-1.16,5.51,5.51,0,0,1,4.31,1.44c.61.63,1,1.44,1.6,2.08,2.88,3.08,8.47.78,11.94,3.17,2.13,1.48,2.79,4.27,3.55,6.76s2.14,5.22,4.68,5.75a13.879,13.879,0,0,0,3.69-.14,3.63,3.63,0,0,1,3.32,1.22c1.18,1.79-.45,4.78,1.26,6.06,1.53,1.13,4.3-.45,5.37,1.12a2.34,2.34,0,0,1-.37,2.6,18.069,18.069,0,0,0-1.74,2.18,3.3,3.3,0,0,0,3.25,4.82c1.08-.11,2.23-.72,3.17-.19a2.24,2.24,0,0,1,1,1.77A4.65,4.65,0,0,1,257,248c-1.84.12-3.53-.88-5.17-1.72s-3.57-1.55-5.27-.85a8.14,8.14,0,0,0-2.12,1.49,23.21,23.21,0,0,1-6.52,3.86c-2.08.82-4.5,1.31-6.5.29-2.25-1.15-3.41-3.95-5.79-4.8s-5.1.74-7.38,2.09-5.33,2.48-7.39.82c-2.22-1.79-1.54-5.38-2.89-7.89a7.75,7.75,0,0,0-2.17-2.39c-1.52-1.17-3.25-2.05-4.78-3.2a8,8,0,0,1-3.26-4.58c-.45-2.27.63-4.54,1.86-6.5s2.66-3.88,3.06-6.15c.3-1.7,0-3.47.39-5.15a6.35,6.35,0,0,1,4.12-4.35c1.12-.38,1.32-.28,1.89-1.27a4,4,0,0,1,2.54-2.07Z" transform="translate(-50.4 -87.115)" fill="#3f3d56"/>
  <g id="Group_31" data-name="Group 31" transform="translate(0 -0.005)" opacity="0.1">
    <path id="Path_115" data-name="Path 115" d="M249.51,225.44a8.51,8.51,0,0,1,.18,3,8.11,8.11,0,0,1-.18-3Z" transform="translate(-50.4 -87.11)"/>
    <path id="Path_116" data-name="Path 116" d="M253.79,236.89a3.27,3.27,0,0,0-.34,1.1,3.38,3.38,0,0,1,.12-2.8,17.79,17.79,0,0,1,1.74-2.17,3.69,3.69,0,0,0,.5-1l.08.09a2.34,2.34,0,0,1-.36,2.59,17.876,17.876,0,0,0-1.74,2.19Z" transform="translate(-50.4 -87.11)"/>
    <path id="Path_117" data-name="Path 117" d="M200.82,234.21c1.53,1.16,3.25,2,4.77,3.21a7.62,7.62,0,0,1,2.17,2.39c1.35,2.51.67,6.1,2.89,7.89,2.06,1.66,5.12.54,7.4-.82s4.88-3,7.37-2.09,3.54,3.65,5.8,4.8c2,1,4.41.52,6.5-.29a23.3,23.3,0,0,0,6.51-3.86,8.6,8.6,0,0,1,2.12-1.5c1.71-.69,3.64,0,5.28.86s3.33,1.84,5.16,1.72a4.7,4.7,0,0,0,4.15-4.11,3,3,0,0,1,.22.88,4.64,4.64,0,0,1-4.15,4.92c-1.83.12-3.53-.88-5.16-1.71s-3.57-1.55-5.28-.86a8.831,8.831,0,0,0-2.12,1.49,23.331,23.331,0,0,1-6.51,3.87c-2.08.81-4.51,1.3-6.5.29-2.26-1.15-3.41-3.95-5.8-4.8s-5.1.73-7.37,2.09-5.34,2.48-7.4.81c-2.22-1.79-1.54-5.37-2.89-7.89a7.7,7.7,0,0,0-2.17-2.38c-1.51-1.17-3.24-2.05-4.77-3.21a8,8,0,0,1-3.27-4.58,5.41,5.41,0,0,1-.1-1.2,8.36,8.36,0,0,0,3.15,4.08Z" transform="translate(-50.4 -87.11)"/>
  </g>
  <path id="Path_118" data-name="Path 118" d="M204.87,286.15l-3.43.73s3.38,5.56,8.59,1.91S204.87,286.15,204.87,286.15Z" transform="translate(-50.4 -87.115)" fill="#4c4981"/>
  <path id="Path_119" data-name="Path 119" d="M204.87,286.15l-3.43.73s3.38,5.56,8.59,1.91S204.87,286.15,204.87,286.15Z" transform="translate(-50.4 -87.115)" opacity="0.1"/>
  <path id="Path_120" data-name="Path 120" d="M279.32,337.9s4.76,2.46,9.19,5.31c3.18,2,6.19,4.27,7.17,5.94,2.36,4,13.83,8.34,13.83,8.34l11.38,8.66c2.68.89,5.29,4.15,6.36,5.61.32.44.51.72.51.72l4.56-.59,2.4-3.12s.61-6.88-4.13-6.8a6.52,6.52,0,0,1-2.67-.69c-5.1-2.25-12.23-9.35-12.23-9.35s-12.12-15.14-15.75-15.64a6,6,0,0,1-1.14-.29c-3.69-1.29-9-6.05-9-6.05Z" transform="translate(-50.4 -87.115)" fill="#efb7b9"/>
  <path id="Path_121" data-name="Path 121" d="M232.31,381.67c1.21,7.27,6.72,21.17,8.49,24.07,2.2,3.59,3.35,10.78,3.35,10.78l.65,5a5.8,5.8,0,0,0,.72,1.94,10.579,10.579,0,0,0,.64,1l9.13-2.81s-.53-2.1-1.33-4.51-2-5.44-3.14-6.56c-2.23-2.19-2.56-9.92-2.56-9.92s-1.86-14.86-2.43-16.73a25.8,25.8,0,0,1-1-5.48c-.09-1-.15-2.14-.16-3.43a70.094,70.094,0,0,0-1.44-11l-10.65,1.93-.28,11.91a7.94,7.94,0,0,0,.01,3.81Z" transform="translate(-50.4 -87.115)" fill="#efb7b9"/>
  <path id="Path_122" data-name="Path 122" d="M327.25,371.76c.32.44.51.72.51.72l4.56-.59,2.4-3.12s.61-6.88-4.13-6.8a6.519,6.519,0,0,1-2.67-.69c-.39,2.06,1.92,3.77,1.92,3.77s1,.7.73,3.93C330.42,371.18,328.47,371.65,327.25,371.76Z" transform="translate(-50.4 -87.115)" opacity="0.1"/>
  <path id="Path_123" data-name="Path 123" d="M326.75,372.18c.3,1.11,3.18,2.74,5.18,3.76,1,.5,1.75.85,1.9.93.46.23,2.88-2.46,3.21-4.63s6.1-8.92,6.1-8.92a24.2,24.2,0,0,0,2.14-8.45c.22-2.95-1-3.19-2.45-2.52a9.69,9.69,0,0,0-2.74,2.15,7.32,7.32,0,0,1-3.55,1.84,17.37,17.37,0,0,0-5.11,2.18c-1.4.9-2.76,2-3,3-.53,2.13,1.89,3.93,1.89,3.93s1,.7.73,3.93S326.72,372.08,326.75,372.18Z" transform="translate(-50.4 -87.115)" fill="#444053"/>
  <path id="Path_124" data-name="Path 124" d="M331.93,375.94c1,.5,1.75.85,1.9.93.46.23,2.88-2.46,3.21-4.63s6.1-8.92,6.1-8.92a24.2,24.2,0,0,0,2.14-8.45c.22-2.95-1-3.19-2.45-2.52-.24,2.34-.83,6.89-2,9.26C339.37,364.43,333.52,373.49,331.93,375.94Z" transform="translate(-50.4 -87.115)" opacity="0.1"/>
  <path id="Path_125" data-name="Path 125" d="M245.61,423.28l-.09.17a10.573,10.573,0,0,0,.64,1l9.13-2.81s-.53-2.1-1.33-4.51c-3.61-1-8.79,5.31-8.79,5.31Z" transform="translate(-50.4 -87.115)" opacity="0.1"/>
  <path id="Path_126" data-name="Path 126" d="M245,430.08s7.62,2.67,11,2.26c2.61-.31,2.72-1.52,2.54-4-.06-.8-.14-1.72-.19-2.78-.17-4.4-1.94-5.29-1.94-5.29-2.9-7.6-11.25,2.6-11.25,2.6l.43.84a9.2,9.2,0,0,0-.85,4.15,12.121,12.121,0,0,0,.26,2.22Z" transform="translate(-50.4 -87.115)" fill="#444053"/>
  <path id="Path_127" data-name="Path 127" d="M245,430.08s7.62,2.67,11,2.26c2.61-.31,2.72-1.52,2.54-4a8.07,8.07,0,0,1-6.21,1.78,24.43,24.43,0,0,1-7.59-2.26,12.121,12.121,0,0,0,.26,2.22Z" transform="translate(-50.4 -87.115)" opacity="0.1"/>
  <path id="Path_128" data-name="Path 128" d="M207.23,245.26l3,13,.61,2.68,5.51.7,5.68.72,6.18-2.24s1.72-5.88.3-10.29a6.52,6.52,0,0,0-2.86-3.77,6.351,6.351,0,0,1-1.19-.92,5.22,5.22,0,0,1-1-1.43,5.91,5.91,0,0,1-.53-2.07c-.31-3.51,1.91-7.35,1.91-7.35s-13.1-4.47-12.08-1.58c.67,1.87-1.18,5.13-2.56,7.19-.75,1.11-1.36,1.88-1.36,1.88Z" transform="translate(-50.4 -87.115)" fill="#efb7b9"/>
  <circle id="Ellipse_382" data-name="Ellipse 382" cx="11.38" cy="11.38" r="11.38" transform="translate(157.27 130.375)" opacity="0.1"/>
  <circle id="Ellipse_383" data-name="Ellipse 383" cx="11.38" cy="11.38" r="11.38" transform="translate(157.22 129.955)" fill="#efb7b9"/>
  <path id="Path_129" data-name="Path 129" d="M208.05,288.52c.54,2.51,3,6.46,3,6.46l15.89,3.9L238.29,287v-.08c-.35-1.11-4.68-15.12-1.55-18.57,3.28-3.59,2-13.72,2-13.72s-5.67-6.52-6.82-8.1-8.51-2.82-8.51-2.82c.37.5.71,1,1,1.43a14,14,0,0,1,1.81,3.84,5.74,5.74,0,0,1-.15,4.17,4.58,4.58,0,0,0-.39,1.07c-1.24,5.43-6.9,4.67-9.15,4.13-.58-.14-.94-.26-.94-.26l-5.41.17-3.4.11s1.55,26.78,1.18,28.91a3.42,3.42,0,0,0,.09,1.24Z" transform="translate(-50.4 -87.115)" fill="#f86d70"/>
  <path id="Path_130" data-name="Path 130" d="M206.87,259.75l9.85-1.29h-.18c-.58-.14-.93-.26-.93-.26l-5.42.17-3.39.11S206.82,258.92,206.87,259.75Z" transform="translate(-50.4 -87.115)" fill="#925978"/>
  <path id="Path_131" data-name="Path 131" d="M167.52,209.58l4.27,1.04,6.73-.88,1.75-1.83Z" transform="translate(0 -0.005)" fill="#925978"/>
  <path id="Path_132" data-name="Path 132" d="M174.63,211.32l1.93.47.79-.83Z" transform="translate(0 -0.005)" fill="#925978"/>
  <path id="Path_133" data-name="Path 133" d="M208.05,288.52c2.54.26,4.88.39,4.88.39l13.09-.49V274.75a19.389,19.389,0,0,0-5.28-3.48c-2.28-.79-5-3.21-4.46-9.59a9.145,9.145,0,0,1,.11-1.14,14.679,14.679,0,0,0,.12-2.15,11.5,11.5,0,0,0-3.63-8.42,1.734,1.734,0,0,0-.19-.17l-2.13-9.92a2.121,2.121,0,0,0-.43.06c-.75,1.11-1.36,1.88-1.36,1.88l-1.57,3.44,3,13-3.4.11s1.55,26.78,1.18,28.91A3.42,3.42,0,0,0,208.05,288.52Z" transform="translate(-50.4 -87.115)" opacity="0.1"/>
  <path id="Path_134" data-name="Path 134" d="M212.5,289l13.09-.48V274.84a19.51,19.51,0,0,0-5.27-3.48c-2.41-.84-5.28-3.48-4.35-10.73A11.87,11.87,0,0,0,212.49,250l-.2-.17-2.13-9.92a4.61,4.61,0,0,0-3.37,1.93A8.45,8.45,0,0,1,206,243a2,2,0,0,1-2.63.78c-1.38-.61-7.32-3.12-8.65-.66s-1.58,17.11-1.58,17.11a11.19,11.19,0,0,1,3.85,6.33c.91,4.19,2.43,4.29,2.43,4.29l1.64,12s1.49,2.61.38,4.05" transform="translate(-50.4 -87.115)" fill="#444053"/>
  <path id="Path_135" data-name="Path 135" d="M206,243l2.23,6.68,4.26.37-.2-.17-2.13-9.92a4.61,4.61,0,0,0-3.37,1.93A8.45,8.45,0,0,1,206,243Z" transform="translate(-50.4 -87.115)" fill="#444053"/>
  <path id="Path_136" data-name="Path 136" d="M173.87,230.69l.29,2.18,9.45,1.34s.77-.58,2-1.37c-1-.23-5.7-1.25-8.16-2-.91-.28-1.51-.52-1.53-.68s.06-.19.21-.31C174.73,230.38,173.87,230.69,173.87,230.69Z" transform="translate(-50.4 -87.115)" opacity="0.1"/>
  <path id="Path_137" data-name="Path 137" d="M162.79,244.8s10.71,8.13,17.35,9.44c0,0,9.34,2.76,13,6l4-15.42-2.45-1.69s-2.93,1.81-5.45,1.21-5.31-1-5.31-1a41.061,41.061,0,0,0-6.79-1.86c-1.8-.15-1.07-2.49.73-3.73a3.91,3.91,0,0,1,.75-.42,2.32,2.32,0,0,0,3,.68,6.85,6.85,0,0,0,1.76-1.64h0a22.83,22.83,0,0,0,2-3s-5.59-1.2-8.37-2.06c-.91-.28-1.51-.52-1.53-.68-.08-.64,5-2.66,5-2.66s-4.34-2.1-6.1-.57c0,0,1.14.85.22,1.69s-12,9.37-12,9.37S157.13,241.15,162.79,244.8Z" transform="translate(-50.4 -87.115)" fill="#444053"/>
  <path id="Path_138" data-name="Path 138" d="M172,236.91l5.93.85a3.911,3.911,0,0,1,.75-.42,2.32,2.32,0,0,0,3,.68,6.85,6.85,0,0,0,1.76-1.64h0a23.44,23.44,0,0,0,1.62-2.53s-5.59-1.2-8.37-2.06Z" transform="translate(-50.4 -87.115)" opacity="0.1"/>
  <path id="Path_139" data-name="Path 139" d="M172.34,236.43l6.31.91a2.32,2.32,0,0,0,3,.68c1.81-1,3.76-4.66,3.76-4.66s-5.59-1.2-8.37-2.06Z" transform="translate(-50.4 -87.115)" fill="#444053"/>
  <path id="Path_140" data-name="Path 140" d="M289.83,330l-10.51,7.95s4.76,2.46,9.19,5.31c3.87-2.62,7.52-5,10.29-7.21C295.11,334.71,289.83,330,289.83,330Z" transform="translate(-50.4 -87.115)" opacity="0.1"/>
  <path id="Path_141" data-name="Path 141" d="M232.31,381.67a35.612,35.612,0,0,0,7.7-1.84s1.94-.42,4.82-1.38c-.09-1-.15-2.14-.16-3.43a70.09,70.09,0,0,0-1.44-11l-10.65,1.93-.28,11.91a7.94,7.94,0,0,0,.01,3.81Z" transform="translate(-50.4 -87.115)" opacity="0.1"/>
  <path id="Path_142" data-name="Path 142" d="M213.33,333.35c2.14,3.17,8,16.65,8,16.65a57.333,57.333,0,0,0,4.46,6.87c2.33,2.93,3.94,9.52,5.71,14.79s-.52,4.28-.27,7,10.26-.8,10.26-.8,20.45-4.5,26.7-17,31.21-23.82,36.26-30.85-1.43-4.13-1.18-7.94-2.63-7-2.63-7-9.42-2.66-10.95-4.51-9.05-6.48-9.05-6.48-7.09-3.07-8-4.14-9.31-4.39-11.88-5-5.09-4.3-5.09-4.3-1.59.21-3.94-2.07-12.21-4.24-12.21-4.24C222.69,296.73,211.06,295,211.06,295l-.27,2.34C201.84,309,211.19,330.18,213.33,333.35Z" transform="translate(-50.4 -87.115)" fill="#444053"/>
  <path id="Path_143" data-name="Path 143" d="M210.79,297.32s14.55,4.79,28.74-12.93C222.69,296.73,211.06,295,211.06,295Z" transform="translate(-50.4 -87.115)" opacity="0.1"/>
  <path id="Path_144" data-name="Path 144" d="M235.83,305.59s19.54,28.21,20.75,29.24S236.86,305.24,235.83,305.59Z" transform="translate(-50.4 -87.115)" opacity="0.1"/>
  <path id="Path_145" data-name="Path 145" d="M226.8,303.43s13.53,21,13.26,23.84C240.06,327.27,227,307.08,226.8,303.43Z" transform="translate(-50.4 -87.115)" opacity="0.1"/>
  <path id="Path_146" data-name="Path 146" d="M218.92,309.2s2.5,11.75-1.26,18.41Z" transform="translate(-50.4 -87.115)" opacity="0.1"/>
  <path id="Path_147" data-name="Path 147" d="M213.72,309.88s-.16,10.17-1.3,12.26Z" transform="translate(-50.4 -87.115)" opacity="0.1"/>
  <path id="Path_148" data-name="Path 148" d="M196.46,213.7l17.97,7.04-6.58.86Z" transform="translate(0 -0.005)" opacity="0.1"/>
  <path id="Path_149" data-name="Path 149" d="M211.48,222.14c.9.6,1.65,1.55,2.72,1.69a4.28,4.28,0,0,0,2.21-.54c1.79-.78,3.81-1.38,5.67-.77,2.64.87,4.09,3.91,6.72,4.81a4.79,4.79,0,0,0,2.52.14,4.88,4.88,0,0,0,1.42-.58,4.57,4.57,0,0,0,2-2.84,5.88,5.88,0,0,0-2-5.54,12.27,12.27,0,0,0-5.59-2.54c-5.28-1.17-10.77-.78-16.16-.37a2.35,2.35,0,0,0-1.26.33c-.82.61-2.22,3.68-1.93,4.72C208.2,222,211.33,221,211.48,222.14Z" transform="translate(-50.4 -87.115)" opacity="0.1"/>
  <path id="Path_150" data-name="Path 150" d="M211.43,221.72c.9.59,1.64,1.55,2.72,1.69a4.23,4.23,0,0,0,2.2-.55c1.79-.78,3.82-1.38,5.67-.77,2.64.88,4.09,3.92,6.72,4.81a4.7,4.7,0,0,0,2.52.14,4.6,4.6,0,0,0,1.42-.57,4.68,4.68,0,0,0,2.06-2.84,5.91,5.91,0,0,0-2.05-5.55,12.31,12.31,0,0,0-5.59-2.53c-5.28-1.18-10.76-.78-16.16-.38a2.38,2.38,0,0,0-1.26.34c-.81.6-2.22,3.68-1.93,4.72C208.15,221.62,211.28,220.56,211.43,221.72Z" transform="translate(-50.4 -87.115)" fill="#3f3d56"/>
  <path id="Path_151" data-name="Path 151" d="M281,230.09l1.72,6.95,2.23-1.35,12.12-7.31s9.18-.34,9.89-7.72-10.2-.07-10.78.49-1.9,1.55-1.9,1.55L283,229Z" transform="translate(-50.4 -87.115)" fill="#efb7b9"/>
  <path id="Path_152" data-name="Path 152" d="M281,230.09l1.72,6.95,2.23-1.35c-.49-3.14-1.26-6-2-6.7Z" transform="translate(-50.4 -87.115)" opacity="0.1"/>
  <path id="Path_153" data-name="Path 153" d="M221.18,275.53l2.47,14.5L238.27,287c-.35-1.11-4.68-15.12-1.55-18.57,3.28-3.59,2-13.72,2-13.72s-5.67-6.52-6.82-8.1-8.51-2.82-8.51-2.82a5.91,5.91,0,0,1-.53-2.07,8.32,8.32,0,0,0-.56,1.55c0,2.64,1.07,4.46,3.9,5.79.25.12.51.23.79.34.44.18.93.35,1.45.51l.24.07c4.71,1.4,5.73,4.22,5.73,4.22a10.79,10.79,0,0,1,2.14,7.6C236.09,266.25,221.18,275.53,221.18,275.53Z" transform="translate(-50.4 -87.115)" opacity="0.1"/>
  <path id="Path_154" data-name="Path 154" d="M222,275.42l2.47,14.49L241,286.47s-.5-5.47-1.65-7.69-.92-10.89-.92-10.89c7-7.54,3.32-13.67,3.32-13.67s20.57-3.34,20.92-4,7.21-4.32,7.21-4.32,7.45-1.91,8.46-3a9,9,0,0,1,1.22-1.11,3.207,3.207,0,0,1,.4-.26l.55,4.75h.25A6.77,6.77,0,0,0,284,245c1.7-1.3-.45-15.55-2.1-16.05a1.9,1.9,0,0,0-.95,0,10.74,10.74,0,0,0-3.55,1.92l-.29.23-.1.09s-9.31,3.65-11.17,5.33-16.34,3.81-16.34,3.81-6.49,1.54-7.33.61-10.75-2.45-11.58-1-3.13,1.19-3.13,1.19c-1.63-1.88-2.76-1.15-3.45-.07a7.551,7.551,0,0,0-.88,2.09c0,2.88,1.27,4.77,4.69,6.13.52.2,1.08.4,1.69.58,4.72,1.4,5.73,4.22,5.73,4.22a10.77,10.77,0,0,1,2.15,7.6C236.94,266.14,222,275.42,222,275.42Z" transform="translate(-50.4 -87.115)" fill="#444053"/>
  <path id="Path_155" data-name="Path 155" d="M281,229a1.54,1.54,0,0,1,.53.06c1.65.5,3.79,14.76,2.09,16.06a6.7,6.7,0,0,1-2.89,1.25h-.25l-.55-4.75a3.212,3.212,0,0,0-.4.26v-.2a12.34,12.34,0,0,0-2.35-10.55Z" transform="translate(-50.4 -87.115)" opacity="0.1"/>
  <path id="Path_156" data-name="Path 156" d="M279.92,241.6l.55,4.75A6.65,6.65,0,0,0,284,245c1.7-1.3-.45-15.55-2.1-16.05-1.3-.4-3.59,1.22-4.5,1.91a12.36,12.36,0,0,1,2.52,10.74Z" transform="translate(-50.4 -87.115)" fill="#444053"/>
  <path id="Path_157" data-name="Path 157" d="M227.86,249.25l2.37-2.22-6.18-6a7.55,7.55,0,0,0-.88,2.09C223.19,246,224.44,247.89,227.86,249.25Z" transform="translate(-50.4 -87.115)" fill="#444053"/>
  <path id="Path_158" data-name="Path 158" d="M211.32,220.87c.9.59,1.64,1.55,2.72,1.69a4.23,4.23,0,0,0,2.2-.55c1.79-.78,3.82-1.38,5.67-.77,2.64.88,4.09,3.92,6.72,4.81a4.7,4.7,0,0,0,2.52.14,4.529,4.529,0,0,0,3.59-4.68,4.74,4.74,0,0,1,0,2.12,4.64,4.64,0,0,1-2.06,2.84,4.5,4.5,0,0,1-1.42.57,4.66,4.66,0,0,1-2.51-.14c-2.64-.89-4.09-3.93-6.73-4.81-1.85-.61-3.88,0-5.67.77a4.23,4.23,0,0,1-2.2.55c-1.07-.14-1.82-1.1-2.72-1.69-.15-1.16-3.28-.1-3.67-1.49a1.66,1.66,0,0,1,0-.64C208.38,220.66,211.17,219.78,211.32,220.87Z" transform="translate(-50.4 -87.115)" opacity="0.1"/>
  <path id="Path_159" data-name="Path 159" d="M221,253.6s-1.31,3.68.36,4.92c0,0-1.83-4.87-2.89-4.76" transform="translate(-50.4 -87.115)" opacity="0.1"/>
  <path id="Path_160" data-name="Path 160" d="M302.45,217.76s-8.45,7.31-2.34,8.49S302.45,217.76,302.45,217.76Z" transform="translate(-50.4 -87.115)" fill="#efb7b9"/>
  <g id="Group_32" data-name="Group 32" transform="translate(0 -0.005)" opacity="0.1">
    <path id="Path_161" data-name="Path 161" d="M871.84,420.25h-263V653.19c0,53.26-40.75,90-90.62,90a100.132,100.132,0,0,1-34.82-6.11,97.54,97.54,0,0,0,47.82,12.11c49.87,0,90.62-36.72,90.62-90V426.25h250Z" transform="translate(-50.4 -87.11)"/>
    <path id="Path_162" data-name="Path 162" d="M558.42,281.05h13V218.04H821.44v-6H558.42Z"/>
    <path id="Path_163" data-name="Path 163" d="M927.83,249.17v404c0,53.26-40.75,90-90.62,90a100.131,100.131,0,0,1-34.82-6.11,97.54,97.54,0,0,0,47.82,12.11c49.87,0,90.62-36.72,90.62-90v-410Z" transform="translate(-50.4 -87.11)"/>
  </g>
</svg>
